<svg class="icon github" xmlns="http://www.w3.org/2000/svg" width="24" height="24" viewBox="0 0 98 96" fill="white">
  <path d="M49 .67C21.9.67 0 22.67 0 49.93c0 21.76 14.1 40.23 33.6 46.74 2.46.46 3.36-1.07 3.36-2.38 0-1.17-.04-4.3-.07-8.45-13.67 2.97-16.55-6.6-16.55-6.6-2.24-5.7-5.48-7.22-5.48-7.22-4.48-3.07.34-3.02.34-3.02 4.96.35 7.57 5.1 7.57 5.1 4.4 7.55 11.55 5.37 14.36 4.1.44-3.2 1.7-5.37 3.08-6.6-10.9-1.24-22.35-5.45-22.35-24.25 0-5.36 1.92-9.75 5.08-13.2-.52-1.25-2.2-6.3.48-13.13 0 0 4.12-1.32 13.5 5.04a46.7 46.7 0 0 1 12.3-1.65c4.18.02 8.38.56 12.3 1.65 9.36-6.36 13.48-5.04 13.48-5.04 2.7 6.83 1.02 11.88.5 13.13 3.18 3.45 5.06 7.84 5.06 13.2 0 18.84-11.48 22.98-22.42 24.18 1.76 1.52 3.32 4.5 3.32 9.1 0 6.57-.06 11.86-.06 13.48 0 1.32.88 2.86 3.4 2.38C83.9 90.12 98 71.67 98 49.93 98 22.67 76.1.67 49 .67Z"></path>
</svg>
